<?xml version="1.0" encoding="UTF-8" standalone="no"?>
<!-- Created with Inkscape (http://www.inkscape.org/) -->

<svg
   xmlns:dc="http://purl.org/dc/elements/1.1/"
   xmlns:cc="http://creativecommons.org/ns#"
   xmlns:rdf="http://www.w3.org/1999/02/22-rdf-syntax-ns#"
   xmlns:svg="http://www.w3.org/2000/svg"
   xmlns="http://www.w3.org/2000/svg"
   xmlns:xlink="http://www.w3.org/1999/xlink"
   xmlns:sodipodi="http://sodipodi.sourceforge.net/DTD/sodipodi-0.dtd"
   xmlns:inkscape="http://www.inkscape.org/namespaces/inkscape"
   width="257"
   height="106.59375"
   id="svg2"
   sodipodi:version="0.32"
   inkscape:version="0.48.4 r9939"
   sodipodi:docname="stencil-diagram.svg"
   version="1.0"
   inkscape:output_extension="org.inkscape.output.svg.inkscape">
  <defs
     id="defs4">
    <marker
       inkscape:stockid="Arrow1Send"
       orient="auto"
       refY="0"
       refX="0"
       id="Arrow1Send"
       style="overflow:visible">
      <path
         id="path4099"
         d="M 0,0 5,-5 -12.5,0 5,5 0,0 z"
         style="fill-rule:evenodd;stroke:#000000;stroke-width:1pt"
         transform="matrix(-0.2,0,0,-0.2,-1.2,0)"
         inkscape:connector-curvature="0" />
    </marker>
    <marker
       inkscape:stockid="Arrow1Mend"
       orient="auto"
       refY="0"
       refX="0"
       id="Arrow1Mend"
       style="overflow:visible">
      <path
         id="path4093"
         d="M 0,0 5,-5 -12.5,0 5,5 0,0 z"
         style="fill-rule:evenodd;stroke:#000000;stroke-width:1pt"
         transform="matrix(-0.4,0,0,-0.4,-4,0)"
         inkscape:connector-curvature="0" />
    </marker>
    <marker
       inkscape:stockid="Arrow2Mend"
       orient="auto"
       refY="0"
       refX="0"
       id="Arrow2Mend"
       style="overflow:visible">
      <path
         id="path4111"
         style="fill-rule:evenodd;stroke-width:0.625;stroke-linejoin:round"
         d="M 8.7185878,4.0337352 -2.2072895,0.01601326 8.7185884,-4.0017078 c -1.7454984,2.3720609 -1.7354408,5.6174519 -6e-7,8.035443 z"
         transform="scale(-0.6,-0.6)"
         inkscape:connector-curvature="0" />
    </marker>
    <marker
       inkscape:stockid="DotS"
       orient="auto"
       refY="0"
       refX="0"
       id="DotS"
       style="overflow:visible">
      <path
         id="path5516"
         d="m -2.5,-1 c 0,2.76 -2.24,5 -5,5 -2.76,0 -5,-2.24 -5,-5 0,-2.76 2.24,-5 5,-5 2.76,0 5,2.24 5,5 z"
         style="fill-rule:evenodd;stroke:#000000;stroke-width:1pt;marker-start:none;marker-end:none"
         transform="matrix(0.2,0,0,0.2,1.48,0.2)"
         inkscape:connector-curvature="0" />
    </marker>
    <marker
       inkscape:stockid="DotM"
       orient="auto"
       refY="0"
       refX="0"
       id="DotM"
       style="overflow:visible">
      <path
         id="path5513"
         d="m -2.5,-1 c 0,2.76 -2.24,5 -5,5 -2.76,0 -5,-2.24 -5,-5 0,-2.76 2.24,-5 5,-5 2.76,0 5,2.24 5,5 z"
         style="fill-rule:evenodd;stroke:#000000;stroke-width:1pt;marker-start:none;marker-end:none"
         transform="matrix(0.4,0,0,0.4,2.96,0.4)"
         inkscape:connector-curvature="0" />
    </marker>
    <marker
       inkscape:stockid="DotL"
       orient="auto"
       refY="0"
       refX="0"
       id="DotL"
       style="overflow:visible">
      <path
         id="path5510"
         d="m -2.5,-1 c 0,2.76 -2.24,5 -5,5 -2.76,0 -5,-2.24 -5,-5 0,-2.76 2.24,-5 5,-5 2.76,0 5,2.24 5,5 z"
         style="fill-rule:evenodd;stroke:#000000;stroke-width:1pt;marker-start:none;marker-end:none"
         transform="matrix(0.8,0,0,0.8,5.92,0.8)"
         inkscape:connector-curvature="0" />
    </marker>
    <marker
       inkscape:stockid="Arrow2Lstart"
       orient="auto"
       refY="0"
       refX="0"
       id="Arrow2Lstart"
       style="overflow:visible">
      <path
         id="path5466"
         style="font-size:12px;fill-rule:evenodd;stroke-width:0.625;stroke-linejoin:round"
         d="M 8.7185878,4.0337352 -2.2072895,0.01601326 8.7185884,-4.0017078 c -1.7454984,2.3720609 -1.7354408,5.6174519 -6e-7,8.035443 z"
         transform="matrix(1.1,0,0,1.1,1.1,0)"
         inkscape:connector-curvature="0" />
    </marker>
    <marker
       inkscape:stockid="Arrow1Lstart"
       orient="auto"
       refY="0"
       refX="0"
       id="Arrow1Lstart"
       style="overflow:visible">
      <path
         id="path5448"
         d="M 0,0 5,-5 -12.5,0 5,5 0,0 z"
         style="fill-rule:evenodd;stroke:#000000;stroke-width:1pt;marker-start:none"
         transform="matrix(0.8,0,0,0.8,10,0)"
         inkscape:connector-curvature="0" />
    </marker>
    <marker
       inkscape:stockid="Arrow1Lend"
       orient="auto"
       refY="0"
       refX="0"
       id="Arrow1Lend"
       style="overflow:visible">
      <path
         id="path5451"
         d="M 0,0 5,-5 -12.5,0 5,5 0,0 z"
         style="fill-rule:evenodd;stroke:#000000;stroke-width:1pt;marker-start:none"
         transform="matrix(-0.8,0,0,-0.8,-10,0)"
         inkscape:connector-curvature="0" />
    </marker>
    <pattern
       inkscape:collect="always"
       xlink:href="#pattern4611"
       id="pattern4621"
       patternTransform="translate(-1.6804199e-6,-5.0146485e-6)" />
    <pattern
       inkscape:collect="always"
       xlink:href="#Checkerboard"
       id="pattern4614"
       patternTransform="matrix(17.711162,0,0,17.711162,-66.470941,-134.75936)" />
    <pattern
       inkscape:stockid="Checkerboard"
       id="Checkerboard"
       patternTransform="matrix(17.711162,0,0,17.711162,-9.9401391,28.5779)"
       height="2"
       width="2"
       patternUnits="userSpaceOnUse"
       inkscape:collect="always">
      <rect
         id="rect3960"
         height="1"
         width="1"
         y="0"
         x="0"
         style="fill:black;stroke:none" />
      <rect
         id="rect3962"
         height="1"
         width="1"
         y="1"
         x="1"
         style="fill:black;stroke:none" />
    </pattern>
    <inkscape:perspective
       sodipodi:type="inkscape:persp3d"
       inkscape:vp_x="0 : 526.18109 : 1"
       inkscape:vp_y="0 : 1000 : 0"
       inkscape:vp_z="744.09448 : 526.18109 : 1"
       inkscape:persp3d-origin="372.04724 : 350.78739 : 1"
       id="perspective10" />
    <pattern
       patternUnits="userSpaceOnUse"
       width="147.24581"
       height="101.89391"
       patternTransform="translate(56.530802,163.33726)"
       id="pattern4611">
      <rect
         ry="0"
         y="0.39351872"
         x="0.39351872"
         height="101.10687"
         width="146.45877"
         id="rect2383"
         style="fill:url(#pattern4614);fill-opacity:1;fill-rule:evenodd;stroke:#000000;stroke-width:0.78703743;stroke-linecap:butt;stroke-linejoin:miter;stroke-miterlimit:4;stroke-dasharray:none;stroke-opacity:1" />
    </pattern>
    <pattern
       patternUnits="userSpaceOnUse"
       width="147.2458"
       height="101.89391"
       patternTransform="translate(56.530804,163.33727)"
       id="pattern4618">
      <rect
         id="rect4616"
         y="0"
         x="0"
         height="101.89391"
         width="147.2458"
         style="fill:url(#pattern4621);stroke:none" />
    </pattern>
  </defs>
  <sodipodi:namedview
     id="base"
     pagecolor="#ffffff"
     bordercolor="#666666"
     borderopacity="1.0"
     gridtolerance="10000"
     guidetolerance="10"
     objecttolerance="10"
     inkscape:pageopacity="0.0"
     inkscape:pageshadow="2"
     inkscape:zoom="2.0580625"
     inkscape:cx="90.326723"
     inkscape:cy="5.6423573"
     inkscape:document-units="px"
     inkscape:current-layer="layer1"
     showgrid="false"
     inkscape:window-width="1440"
     inkscape:window-height="876"
     inkscape:window-x="0"
     inkscape:window-y="24"
     showguides="true"
     inkscape:guide-bbox="true"
     inkscape:snap-bbox="true"
     inkscape:bbox-nodes="true"
     inkscape:bbox-paths="true"
     inkscape:window-maximized="1"
     fit-margin-top="0"
     fit-margin-left="0"
     fit-margin-right="0"
     fit-margin-bottom="0"
     inkscape:snap-bbox-edge-midpoints="true" />
  <metadata
     id="metadata7">
    <rdf:RDF>
      <cc:Work
         rdf:about="">
        <dc:format>image/svg+xml</dc:format>
        <dc:type
           rdf:resource="http://purl.org/dc/dcmitype/StillImage" />
        <dc:title></dc:title>
      </cc:Work>
    </rdf:RDF>
  </metadata>
  <g
     inkscape:groupmode="layer"
     id="layer4"
     inkscape:label="bottom"
     transform="translate(-97.826251,-41.488757)">
    <path
       style="fill:#dbdbdb;fill-opacity:1;fill-rule:evenodd;stroke:none"
       d="m 98.429974,63.447712 0,21.187502 21.187506,0 0,-21.187502 -21.187506,0 z"
       id="path8489"
       inkscape:connector-curvature="0" />
    <path
       id="path8491"
       d="m 141.17998,63.697712 0,21.187502 21.1875,0 0,-21.187502 -21.1875,0 z"
       style="fill:#dbdbdb;fill-opacity:1;fill-rule:evenodd;stroke:none"
       inkscape:connector-curvature="0" />
    <path
       inkscape:connector-curvature="0"
       id="path8233"
       d="m 119.74284,42.447714 0,63.804516 21.18751,0 0,-63.804516 -21.18751,0 z"
       style="fill:#dbdbdb;fill-opacity:1;fill-rule:evenodd;stroke:none" />
  </g>
  <g
     inkscape:groupmode="layer"
     id="layer3"
     inkscape:label="lower"
     transform="translate(-216.15625,-192.40625)">
    <rect
       ry="0"
       y="193.51724"
       x="301.8497"
       height="104.64618"
       width="21.183376"
       id="rect8335"
       style="fill:none;stroke:#000000;stroke-width:0.30407453;stroke-linecap:butt;stroke-linejoin:miter;stroke-miterlimit:4;stroke-opacity:1;stroke-dasharray:none" />
    <rect
       style="fill:none;stroke:#000000;stroke-width:0.30407453;stroke-linecap:butt;stroke-linejoin:miter;stroke-miterlimit:4;stroke-opacity:1;stroke-dasharray:none"
       id="rect8337"
       width="21.183376"
       height="104.64618"
       x="259.41238"
       y="193.51724"
       ry="0" />
    <rect
       transform="matrix(0,1,-1,0,0,0)"
       style="fill:none;stroke:#000000;stroke-width:0.47458103;stroke-linecap:butt;stroke-linejoin:miter;stroke-miterlimit:4;stroke-opacity:1;stroke-dasharray:none"
       id="rect8323"
       width="21.118189"
       height="255.69524"
       x="215.09941"
       y="-472.43521"
       ry="0" />
    <rect
       transform="matrix(0,1,-1,0,0,0)"
       style="fill:none;stroke:#000000;stroke-width:0.47458109;stroke-linecap:butt;stroke-linejoin:miter;stroke-miterlimit:4;stroke-opacity:1;stroke-dasharray:none"
       id="rect8327"
       width="21.118189"
       height="255.69527"
       x="257.40701"
       y="-472.43527"
       ry="0" />
    <rect
       style="fill:none;stroke:#000000;stroke-width:0.30407453;stroke-linecap:butt;stroke-linejoin:miter;stroke-miterlimit:4;stroke-opacity:1;stroke-dasharray:none"
       id="rect8471"
       width="21.183376"
       height="104.64618"
       x="216.71205"
       y="193.51724"
       ry="0" />
    <rect
       style="fill:none;stroke:#000000;stroke-width:0.30407453;stroke-linecap:butt;stroke-linejoin:miter;stroke-miterlimit:4;stroke-opacity:1;stroke-dasharray:none"
       id="rect6513"
       width="21.183376"
       height="104.64618"
       x="344.71823"
       y="193.51726"
       ry="0" />
    <rect
       style="fill:none;stroke:#000000;stroke-width:0.30407453;stroke-linecap:butt;stroke-linejoin:miter;stroke-miterlimit:4;stroke-opacity:1;stroke-dasharray:none"
       id="rect6515"
       width="21.183376"
       height="104.64618"
       x="387.33716"
       y="193.51724"
       ry="0" />
    <rect
       style="fill:none;stroke:#000000;stroke-width:0.30407453;stroke-linecap:butt;stroke-linejoin:miter;stroke-miterlimit:4;stroke-opacity:1;stroke-dasharray:none"
       id="rect6517"
       width="21.183376"
       height="104.64618"
       x="430.02411"
       y="193.51724"
       ry="0" />
  </g>
  <g
     inkscape:label="Layer 1"
     inkscape:groupmode="layer"
     id="layer1"
     transform="translate(-216.15625,-192.40625)">
    <rect
       style="opacity:0.14693879;fill:none;stroke:none"
       width="147.2458"
       height="101.89391"
       x="95.048843"
       y="193.91516"
       id="rect4623" />
    <rect
       style="fill:none;stroke:#000000;stroke-width:2;stroke-linecap:butt;stroke-linejoin:miter;stroke-miterlimit:4;stroke-opacity:1;stroke-dasharray:none"
       id="rect5247"
       width="254.97929"
       height="104.614"
       x="217.16513"
       y="193.39319"
       ry="0" />
    <path
       style="fill:none;stroke:#000000;stroke-width:3;stroke-linecap:butt;stroke-linejoin:miter;stroke-miterlimit:4;stroke-opacity:1;stroke-dasharray:none;marker-start:url(#DotS);marker-mid:url(#DotS);marker-end:url(#DotS)"
       d="m 248.04123,203.12487 0,22.45928 0,22.45928"
       id="path8473"
       sodipodi:nodetypes="ccc"
       inkscape:connector-curvature="0" />
    <path
       id="path8475"
       d="m 271.02151,225.63269 -22.45928,0 -22.45928,0"
       style="fill:none;stroke:#000000;stroke-width:3;stroke-linecap:butt;stroke-linejoin:miter;stroke-miterlimit:4;stroke-opacity:1;stroke-dasharray:none;marker-start:url(#DotS);marker-mid:none;marker-end:url(#DotS)"
       sodipodi:nodetypes="ccc"
       inkscape:connector-curvature="0" />
    <path
       id="path3884"
       style="fill:none;stroke:#000000;stroke-width:1;stroke-linecap:butt;stroke-linejoin:miter;stroke-miterlimit:4;stroke-opacity:1;stroke-dasharray:1, 2;stroke-dashoffset:0;marker-start:none;marker-mid:url(#Arrow2Mend);marker-end:none"
       d="m 248.01084,225.35515 c 0,0 21.74316,0 46.01142,0 24.26826,0 51.06161,0 61.162,0 10.10039,0 34.00781,0 56.00421,0 21.99639,0 42.08176,0 44.53804,0 11.88407,1.59629 7.34301,10.69229 -0.33879,10.84151 -77.48381,0 -141.71323,0 -222.3823,0 -11.89281,1.27859 -7.71857,10.01875 0,10.16391 8.89314,-0.26152 33.28975,-0.33627 57.68728,-0.29969 24.39753,0.0366 48.79598,0.18452 57.69281,0.36839 8.89683,0.18387 31.29202,0.40368 53.68304,0.58403 22.39101,0.18036 44.77785,0.32124 53.65796,0.34724 11.88407,1.59629 7.34301,10.69229 -0.33879,10.84151 -77.4838,0 -141.71322,0 -222.38229,0 -11.89281,1.27859 -7.71859,10.01875 -1e-5,10.16391 8.89386,-0.0123 33.28751,0.0404 57.68103,0.12729 24.39352,0.0869 48.7869,0.20794 57.68023,0.33235 8.89333,0.12441 31.2866,0.25218 53.67988,0.35251 22.39328,0.10033 44.78657,0.17321 53.67995,0.18785 11.88407,1.59629 7.34301,10.69229 -0.33879,10.84151 -77.31592,0 -142.70916,0 -222.38229,0 -11.89281,1.27859 -7.71859,10.01875 -1e-5,10.16391 2.54098,0 25.32512,0 50.32202,0 24.99691,0 52.20658,0 63.59864,0 11.39205,0 37.46648,0 60.6929,0 23.22641,0 43.60482,0 43.60482,0"
       inkscape:connector-curvature="0"
       sodipodi:nodetypes="csssccccsssccccsssccccsssc" />
  </g>
</svg>
